HIERARCHY
ROOT Hips
{
	OFFSET 0.000000 89.005402 0.000000
	CHANNELS 6 Xposition Yposition Zposition Xrotation Yrotation Zrotation
	JOINT Spine
	{
		OFFSET 0.116900 10.681000 0.373400
		CHANNELS 3 Xrotation Yrotation Zrotation
		JOINT Spine1
		{
			OFFSET 0.000000 13.840401 0.053500
			CHANNELS 3 Xrotation Yrotation Zrotation
			JOINT Spine2
			{
				OFFSET 0.000000 14.712700 -0.366200
				CHANNELS 3 Xrotation Yrotation Zrotation
				JOINT Neck
				{
					OFFSET 0.000000 35.415497 -3.314200
					CHANNELS 3 Xrotation Yrotation Zrotation
					JOINT Head
					{
						OFFSET 0.000000 16.899200 1.218300
						CHANNELS 3 Xrotation Yrotation Zrotation
						JOINT HeadTop_End
						{
							OFFSET 0.000000 22.206207 2.192500
							CHANNELS 3 Xrotation Yrotation Zrotation
							End Site
							{
								OFFSET 0.000000 22.314178 0.000000
							}
						}
					}
				}
				JOINT LeftShoulder
				{
					OFFSET 12.896400 26.716293 -4.548400
					CHANNELS 3 Xrotation Yrotation Zrotation
					JOINT LeftArm
					{
						OFFSET 19.027000 -4.857010 -1.718400
						CHANNELS 3 Xrotation Yrotation Zrotation
						JOINT LeftForeArm
						{
							OFFSET 24.179897 0.000000 0.000000
							CHANNELS 3 Xrotation Yrotation Zrotation
							JOINT LeftHand
							{
								OFFSET 27.156403 0.000000 0.000000
								CHANNELS 3 Xrotation Yrotation Zrotation
								JOINT LeftHandIndex1
								{
									OFFSET 16.441200 0.000000 0.000000
									CHANNELS 3 Xrotation Yrotation Zrotation
									JOINT LeftHandIndex2
									{
										OFFSET 4.821899 0.000000 0.000000
										CHANNELS 3 Xrotation Yrotation Zrotation
										JOINT LeftHandIndex3
										{
											OFFSET 6.386497 0.000000 0.000000
											CHANNELS 3 Xrotation Yrotation Zrotation
											JOINT LeftHandIndex4
											{
												OFFSET 5.188988 0.000000 0.000000
												CHANNELS 3 Xrotation Yrotation Zrotation
												End Site
												{
													OFFSET -0.178703 5.185913 0.000177
												}
											}
										}
									}
								}
								JOINT LeftHandThumb1
								{
									OFFSET 6.534897 -5.032593 5.900300
									CHANNELS 3 Xrotation Yrotation Zrotation
									JOINT LeftHandThumb2
									{
										OFFSET 3.818176 -2.204422 2.204423
										CHANNELS 3 Xrotation Yrotation Zrotation
										JOINT LeftHandThumb3
										{
											OFFSET 3.252098 -1.877594 1.877601
											CHANNELS 3 Xrotation Yrotation Zrotation
											JOINT LeftHandThumb4
											{
												OFFSET 5.251778 -3.032120 3.032117
												CHANNELS 3 Xrotation Yrotation Zrotation
												End Site
												{
													OFFSET 0.000023 6.780014 0.000000
												}
											}
										}
									}
								}
							}
						}
					}
				}
				JOINT RightShoulder
				{
					OFFSET -12.896300 26.716293 -4.548400
					CHANNELS 3 Xrotation Yrotation Zrotation
					JOINT RightArm
					{
						OFFSET -19.027000 -4.857010 -1.718400
						CHANNELS 3 Xrotation Yrotation Zrotation
						JOINT RightForeArm
						{
							OFFSET -24.179897 0.000000 0.000000
							CHANNELS 3 Xrotation Yrotation Zrotation
							JOINT RightHand
							{
								OFFSET -27.156403 0.000000 0.000000
								CHANNELS 3 Xrotation Yrotation Zrotation
								JOINT RightHandThumb1
								{
									OFFSET -6.591202 -4.852203 5.988100
									CHANNELS 3 Xrotation Yrotation Zrotation
									JOINT RightHandThumb2
									{
										OFFSET -3.818176 -2.204422 2.204423
										CHANNELS 3 Xrotation Yrotation Zrotation
										JOINT RightHandThumb3
										{
											OFFSET -3.252098 -1.877594 1.877601
											CHANNELS 3 Xrotation Yrotation Zrotation
											JOINT RightHandThumb4
											{
												OFFSET -5.251778 -3.032120 3.032117
												CHANNELS 3 Xrotation Yrotation Zrotation
												End Site
												{
													OFFSET -0.000023 6.780014 0.000000
												}
											}
										}
									}
								}
								JOINT RightHandIndex1
								{
									OFFSET -16.029404 0.000000 0.000000
									CHANNELS 3 Xrotation Yrotation Zrotation
									JOINT RightHandIndex2
									{
										OFFSET -5.213303 0.000000 0.000000
										CHANNELS 3 Xrotation Yrotation Zrotation
										JOINT RightHandIndex3
										{
											OFFSET -6.386528 0.000000 0.000000
											CHANNELS 3 Xrotation Yrotation Zrotation
											JOINT RightHandIndex4
											{
												OFFSET -5.189026 0.000000 0.000000
												CHANNELS 3 Xrotation Yrotation Zrotation
												End Site
												{
													OFFSET 0.236702 5.183624 0.001972
												}
											}
										}
									}
								}
							}
						}
					}
				}
			}
		}
	}
	JOINT LeftUpLeg
	{
		OFFSET 14.073000 -7.904099 -1.463000
		CHANNELS 3 Xrotation Yrotation Zrotation
		JOINT LeftLeg
		{
			OFFSET -0.109806 -34.073280 4.093200
			CHANNELS 3 Xrotation Yrotation Zrotation
			JOINT LeftFoot
			{
				OFFSET 0.109806 -29.899420 -6.319000
				CHANNELS 3 Xrotation Yrotation Zrotation
				JOINT LeftToeBase
				{
					OFFSET 1.551100 -14.988700 20.535801
					CHANNELS 3 Xrotation Yrotation Zrotation
					JOINT LeftToe_End
					{
						OFFSET 0.221200 0.570800 13.248301
						CHANNELS 3 Xrotation Yrotation Zrotation
						End Site
						{
							OFFSET 0.000000 13.262435 0.000000
						}
					}
				}
			}
		}
	}
	JOINT RightUpLeg
	{
		OFFSET -13.839300 -7.904099 -1.463000
		CHANNELS 3 Xrotation Yrotation Zrotation
		JOINT RightLeg
		{
			OFFSET 0.109694 -34.073219 4.093300
			CHANNELS 3 Xrotation Yrotation Zrotation
			JOINT RightFoot
			{
				OFFSET -0.109694 -29.899384 -6.319200
				CHANNELS 3 Xrotation Yrotation Zrotation
				JOINT RightToeBase
				{
					OFFSET -1.551100 -14.988700 20.535801
					CHANNELS 3 Xrotation Yrotation Zrotation
					JOINT RightToe_End
					{
						OFFSET -0.221200 0.570900 13.248299
						CHANNELS 3 Xrotation Yrotation Zrotation
						End Site
						{
							OFFSET 0.000000 13.262440 0.000000
						}
					}
				}
			}
		}
	}
}
MOTION
Frames: 4
Frame Time: 0.033333
-1.731709 71.626038 1.111855 11.687169 -49.461686 11.396014 10.978528 2.787410 -2.155314 6.100703 5.566541 -4.284687 -5.786922 6.328127 -3.046185 2.318608 9.363348 -0.265427 -4.146603 23.161890 -3.523162 -0.000001 -0.000000 -0.000000 -1.875342 -16.181727 -2.870474 -10.644664 2.164740 -45.510640 -22.862373 -25.786223 -15.871674 2.491046 -2.511823 6.860498 -1.232778 -5.771940 -0.192335 0.133937 -0.197649 -4.602135 0.055753 -0.448199 -7.568176 0.000001 -0.000002 0.000003 18.457956 -9.513803 13.216578 -1.150198 11.255310 -8.400859 5.706520 8.483116 -0.820705 -0.000000 -0.000001 0.000002 -5.074643 24.343754 1.482700 6.642389 -34.733759 57.610453 -21.032003 44.833826 19.961718 -0.087230 35.608477 7.474268 55.149529 18.649582 -29.698281 -0.442579 -14.180542 7.313141 21.667015 -29.244507 9.142386 -0.000000 0.000000 0.000000 5.673380 7.585025 36.844151 1.050463 3.824513 68.900271 0.499562 3.026042 62.196454 0.000001 0.000000 -0.000002 -64.946158 26.591074 44.239217 46.271424 -21.279789 3.025058 2.032063 1.396304 -11.917804 -0.918901 -6.110452 0.929362 0.000000 -0.000001 0.000000 -29.521078 -0.236614 -29.199021 53.475498 5.069724 -6.102649 -30.609845 -5.338653 27.121310 0.528358 2.970096 1.471352 -0.000000 0.000001 0.000000 
-2.152873 71.652740 0.916784 11.745374 -49.040219 11.423490 10.967271 2.743849 -2.167497 6.099396 5.605618 -4.383836 -5.775206 6.425478 -3.112283 2.435236 9.961904 -0.307584 -4.033430 23.663822 -3.714035 0.000001 0.000000 -0.000000 -1.855824 -15.658152 -2.899130 -9.720844 2.691755 -45.492506 -23.175209 -26.928209 -16.004084 2.199617 -2.967461 6.659726 -1.232177 -5.710446 -0.476968 0.133032 -0.209379 -4.883912 0.054533 -0.460542 -7.849961 -0.000000 0.000001 -0.000001 18.384632 -9.510187 13.297961 -1.075971 11.351521 -8.412010 5.682335 8.440218 -0.818479 -0.000001 -0.000002 0.000002 -5.099284 24.383366 1.526196 6.907439 -34.864783 57.624592 -21.073522 44.966677 20.041711 0.253622 35.655001 7.509838 55.149529 18.649582 -29.698277 -0.442578 -14.180534 7.313139 21.667011 -29.244507 9.142387 0.000000 -0.000001 -0.000000 5.673380 7.585022 36.844151 1.050462 3.824512 68.900271 0.499560 3.026042 62.196461 0.000001 -0.000003 0.000001 -64.904535 26.586586 44.306758 45.503991 -21.454826 2.918538 2.539607 1.179753 -12.241769 -0.937239 -6.184941 1.051351 -0.000000 0.000000 -0.000000 -29.361761 -0.525676 -29.166807 53.898300 4.746150 -5.666936 -31.158848 -5.512285 26.717803 0.714634 3.262292 1.342528 -0.000000 -0.000001 0.000000 
-3.183328 71.747124 0.407899 11.669251 -47.974323 11.355753 10.937800 2.640467 -2.199830 6.096025 5.733490 -4.638937 -5.746641 6.698702 -3.279812 2.759750 11.546427 -0.441260 -3.712342 24.986058 -4.211289 0.000000 -0.000000 0.000000 -1.796549 -14.247643 -2.972075 -7.476911 3.891838 -45.720279 -24.009110 -29.886999 -16.413288 1.526259 -4.117030 6.195285 -1.227325 -5.546975 -1.234322 0.130243 -0.240782 -5.633901 0.050850 -0.493570 -8.599857 -0.000004 -0.000000 -0.000000 18.189120 -9.501250 13.514337 -0.878150 11.607474 -8.441935 5.618009 8.326025 -0.812584 -0.000002 -0.000000 -0.000002 -5.158205 24.475638 1.626058 7.535079 -35.152381 57.666365 -21.145132 45.201195 20.182202 1.154647 35.799006 7.596701 55.149539 18.649579 -29.698277 -0.442582 -14.180540 7.313137 21.667015 -29.244507 9.142385 0.000000 0.000000 -0.000001 5.673379 7.585025 36.844147 1.050463 3.824515 68.900271 0.499562 3.026042 62.196461 0.000000 -0.000000 -0.000000 -64.635972 26.702736 44.405788 43.407481 -21.904785 2.640040 3.912259 0.607329 -13.026895 -0.880798 -6.379501 1.227836 -0.000000 -0.000000 0.000000 -28.828651 -1.349127 -29.027758 54.950549 4.007248 -4.572437 -32.652512 -5.709794 25.587297 1.183431 3.974565 1.032324 -0.000000 -0.000001 0.000000 
-4.509594 71.914719 -0.280157 11.519573 -46.526641 11.255374 10.896132 2.517241 -2.244207 6.092121 5.966295 -4.988100 -5.710157 7.120967 -3.503867 3.266538 13.809686 -0.682083 -3.201212 26.860265 -4.910477 -0.000001 0.000000 -0.000000 -1.715582 -12.355371 -3.110671 -4.693626 5.347547 -46.411286 -25.331471 -33.960049 -17.190580 0.769875 -5.646496 5.683312 -1.212153 -5.312854 -2.324168 0.125510 -0.286342 -6.713565 0.044299 -0.541536 -9.679470 -0.000000 -0.000001 0.000001 17.906782 -9.490135 13.825280 -0.592735 11.975700 -8.485691 5.525466 8.161571 -0.804409 -0.000000 0.000003 0.000003 -5.228850 24.581328 1.736784 8.271106 -35.439482 57.724470 -21.166715 45.294020 20.234203 2.439141 36.051272 7.703277 55.149533 18.649584 -29.698284 -0.442576 -14.180542 7.313142 21.667011 -29.244510 9.142386 0.000001 0.000000 0.000001 5.673381 7.585027 36.844151 1.050462 3.824516 68.900271 0.499562 3.026044 62.196461 -0.000001 -0.000000 -0.000002 -64.134541 27.030569 44.376046 40.226768 -22.542269 2.241944 5.948527 -0.208612 -14.083678 -0.791218 -6.552371 1.319879 -0.000000 0.000002 0.000000 -28.014094 -2.522026 -28.795979 56.078520 3.066014 -3.127563 -34.523990 -5.871779 24.119510 1.802966 4.865779 0.652650 -0.000000 -0.000000 0.000000 
